<svg width="30" height="40" viewBox="0 0 30 40" fill="none" xmlns="http://www.w3.org/2000/svg">
  <g clip-path="url(#clip0_2067_7553)">
    <path
      d="M13.0251 0.136354C18.1941 -0.505782 22.5877 1.12396 26.1101 4.94397C28.8767 7.94476 30.1397 11.5547 29.987 15.6315C29.8988 17.9647 29.1895 20.1592 28.2683 22.2838C26.927 25.3804 25.1588 28.2311 23.1901 30.9606C21.0764 33.8909 18.7579 36.6551 16.2487 39.2545C15.9756 39.5374 15.6313 39.753 15.32 39.9987H14.6941L14.695 39.9996C14.2476 39.6129 13.7595 39.2634 13.3571 38.8346C10.0353 35.2925 6.98949 31.5306 4.44015 27.3883C2.8611 24.8214 1.47835 22.1562 0.652059 19.2399C-0.787083 14.1587 0.158548 9.52369 3.46358 5.44104C5.91213 2.41573 9.14425 0.619033 13.0251 0.136354ZM14.9821 3.99963C8.94564 4.01419 4.01996 8.93588 3.99972 14.9742C3.97819 21.0213 8.93122 25.9909 14.988 25.9996C21.0376 26.0096 26.0015 21.0487 25.9987 14.9957H25.9997C25.9966 8.94149 21.0303 3.98529 14.9821 3.99963Z"
      fill="#F66E17" />
    <path
      d="M12.8523 20.9348C12.7257 20.9333 12.6007 20.9304 12.4756 20.9289C11.7914 20.9214 11.1072 20.9467 10.4215 20.9646C9.8247 20.9795 9.22792 21.0004 8.63113 20.9378C8.0886 20.8797 7.57018 20.7487 7.12711 20.4136C6.72021 20.1082 6.461 19.6957 6.26057 19.2414C6.09479 18.8691 6.01492 18.4774 6.00287 18.0753C5.9667 16.7736 6.27262 15.5553 6.93873 14.4308C7.08944 14.1746 7.27782 13.9453 7.51593 13.7606C7.64252 13.6623 7.77966 13.5848 7.9379 13.5506C8.28301 13.4761 8.56331 13.6757 8.62812 14.0376C8.67785 14.3191 8.61154 14.5797 8.48646 14.8299C8.2815 15.2395 8.03736 15.6282 7.81884 16.0304C7.58224 16.4667 7.35919 16.9091 7.24014 17.3946C7.15122 17.7595 7.13013 18.1229 7.27028 18.4804C7.37879 18.7589 7.56867 18.9763 7.80829 19.1521C8.18505 19.4276 8.61606 19.5765 9.06365 19.6942C9.12393 19.7091 9.11941 19.6674 9.12996 19.6391C9.26559 19.2533 9.39821 18.8676 9.53384 18.4818C9.77195 17.8057 10.0282 17.1355 10.3853 16.5099C10.6596 16.0304 10.9851 15.591 11.4252 15.2455C11.5412 15.1546 11.6588 15.0667 11.7944 15.0057C11.8019 15.0489 11.8095 15.0906 11.817 15.1323C11.8803 15.4927 11.9376 15.8531 12.0084 16.2121C12.1214 16.7914 12.3023 17.3544 12.4047 17.9367C12.4786 18.3493 12.557 18.7618 12.6248 19.1759C12.679 19.511 12.7363 19.8446 12.777 20.1812C12.8071 20.4299 12.8523 20.6801 12.8538 20.9333L12.8523 20.9348Z"
      fill="#F06024" />
    <path
      d="M12.8529 20.9339C12.8514 20.6807 12.8062 20.4305 12.7746 20.1803C12.7324 19.8437 12.6766 19.5101 12.6224 19.175C12.5546 18.761 12.4762 18.3484 12.4023 17.9358C12.2999 17.355 12.119 16.7905 12.006 16.2112C11.9367 15.8522 11.8779 15.4903 11.8146 15.1314C11.8071 15.0882 11.7995 15.0465 11.792 15.0048C11.792 14.9988 11.795 14.9958 11.7995 14.9929C12.0226 14.8901 12.2366 14.7695 12.4506 14.6518C12.9072 14.4016 13.3548 14.1365 13.7843 13.8416C14.3464 13.4558 14.8633 13.021 15.3305 12.528C15.4164 12.4371 15.4993 12.3433 15.5807 12.2495C15.6108 12.2152 15.6259 12.2152 15.65 12.2569C15.8504 12.5875 16.1036 12.878 16.3538 13.1699C16.7125 13.5869 17.0952 13.9801 17.4946 14.3569C17.8186 14.6622 18.1532 14.9571 18.5405 15.185C18.6415 15.2446 18.7575 15.2684 18.8615 15.3175C18.6475 15.5603 18.4305 15.8001 18.2225 16.0458C17.9949 16.3154 17.7855 16.5954 17.6574 16.932C17.3273 17.7914 17.1691 18.6731 17.2399 19.592C17.252 19.7558 17.2761 19.9197 17.2957 20.082C17.3288 20.3665 17.3936 20.6465 17.4434 20.928C17.2248 20.928 17.0063 20.928 16.7863 20.928C16.7486 20.928 16.7366 20.9131 16.7411 20.8803C16.7411 20.861 16.7411 20.8431 16.7411 20.8237C16.7411 19.8005 16.7411 18.7788 16.7441 17.7556C16.7441 17.702 16.729 17.6692 16.6853 17.6365C16.1443 17.2269 15.6033 16.8173 15.0653 16.4033C15.0125 16.3631 14.9854 16.3675 14.9357 16.4048C14.3946 16.8188 13.8521 17.2314 13.3096 17.6424C13.2704 17.6722 13.2583 17.702 13.2583 17.7497C13.2583 18.7729 13.2583 19.7946 13.2613 20.8178C13.2613 20.8833 13.2523 20.9146 13.177 20.9146C13.07 20.9146 12.9599 20.9265 12.8514 20.9339H12.8529Z"
      fill="#A13210" />
    <path
      d="M19.5771 16.2928C19.9855 16.9601 20.2809 17.6779 20.5461 18.4092C20.6561 18.7145 20.7646 19.0213 20.9078 19.3133C21.0042 19.5069 21.1188 19.6856 21.286 19.8286C21.3358 19.8703 21.3644 19.8703 21.4126 19.8211C21.8964 19.3252 22.353 18.8084 22.7087 18.2111C22.9136 17.8671 23.0598 17.4977 23.1924 17.1224C23.307 16.7947 23.4426 16.476 23.6506 16.193C23.6672 16.1692 23.6867 16.1469 23.7139 16.1111C23.75 16.3196 23.7832 16.5147 23.8164 16.7099C23.8781 17.0807 23.9414 17.4516 23.9746 17.8254C24.0153 18.2945 24.0228 18.7607 23.9113 19.2224C23.735 19.9611 23.2678 20.4377 22.555 20.6954C22.1511 20.8413 21.7321 20.9158 21.3071 20.956C20.4572 21.0379 19.6057 20.9947 18.7542 20.962C18.3488 20.9471 17.9434 20.9322 17.5381 20.9337C17.5079 20.9352 17.4778 20.9322 17.4476 20.9307C17.3979 20.6492 17.3331 20.3707 17.2999 20.0847C17.2804 19.9209 17.2577 19.7571 17.2442 19.5947C17.1734 18.6758 17.3316 17.7941 17.6616 16.9347C17.7912 16.5982 18.0007 16.3182 18.2268 16.0486C18.4347 15.8013 18.6533 15.563 18.8658 15.3203"
      fill="#FEA901" />
    <path
      d="M13.7248 7.00391C13.8454 7.03668 13.9724 7.03389 14.0959 7.05176C15.0663 7.19472 16.02 7.40153 16.9377 7.75293C17.126 7.82587 17.2948 7.93024 17.4289 8.08203C17.6277 8.30684 17.6764 8.57499 17.6613 8.8623C17.6462 9.18833 17.5614 9.50271 17.5011 9.82129C17.444 10.1235 17.4188 10.4322 17.342 10.7314C17.2757 10.9876 17.1806 11.2267 16.9621 11.3965L16.9308 11.418C16.867 11.3634 16.8007 11.3072 16.7726 11.2822C16.6656 11.1884 16.5844 11.0901 16.5256 11.0186C16.4126 10.8816 16.3638 10.7997 16.2492 10.6299C16.0219 10.2952 15.9074 10.1269 15.8576 10.1416C15.7898 10.1609 15.8233 10.3606 15.7961 10.8535C15.7735 11.2733 15.7625 11.4833 15.7219 11.6055C15.7219 11.6055 15.618 12.0404 15.6135 12.2178C15.6135 12.2222 15.6183 12.2236 15.6183 12.2236C15.6353 12.2418 15.6455 12.2562 15.6467 12.2578C15.6542 12.2702 15.6634 12.2817 15.6711 12.2939L15.3342 12.5293C14.867 13.0221 14.3488 13.457 13.7883 13.8428C13.3588 14.1377 12.9109 14.4031 12.4543 14.6533C12.2388 14.771 12.0244 14.8914 11.8029 14.9941C11.7488 14.3493 11.8472 13.722 12.007 13.0996C12.0658 12.8688 12.1172 12.6366 12.1564 12.4014C12.176 12.2852 12.1667 12.17 12.0959 12.0732C11.8128 11.701 11.8053 11.2829 11.8791 10.8496C11.9092 10.6769 11.936 10.5026 11.9631 10.3301C11.9676 10.3048 11.9741 10.2773 11.9592 10.2432C11.5583 10.7733 11.1617 11.2993 10.758 11.8311C10.4023 11.207 9.97193 10.6336 9.72478 9.96191C9.62232 9.68495 9.56539 9.40035 9.62712 9.10254C9.6874 8.81956 9.83709 8.59125 10.0646 8.41699C10.3659 8.1848 10.7094 8.01965 11.0529 7.86035C11.7311 7.54461 12.4229 7.2633 13.1418 7.04883C13.199 7.03248 13.2559 7.01876 13.3146 7.00391H13.7248Z"
      fill="#FA9709" />
    <path
      d="M18.864 15.3172C18.7509 15.2725 18.6454 15.2442 18.543 15.1847C18.1556 14.9553 17.8211 14.6619 17.4971 14.3566C17.0977 13.9798 16.7149 13.5866 16.3562 13.1696C16.1061 12.8776 15.8469 12.5887 15.6464 12.2581C15.6464 12.2581 15.6359 12.2432 15.6178 12.2238C15.6178 12.2238 15.6133 12.2223 15.6133 12.2179C15.6178 12.0406 15.7218 11.6057 15.7218 11.6057C15.7625 11.4836 15.773 11.2736 15.7956 10.8536C15.8228 10.3606 15.7896 10.161 15.8574 10.1417C15.9072 10.1268 16.0217 10.2951 16.2492 10.6302C16.3638 10.8 16.412 10.8819 16.525 11.0189C16.5838 11.0904 16.6652 11.1887 16.7722 11.2825C16.8023 11.3093 16.8762 11.3719 16.944 11.43C16.9787 11.4583 17.0073 11.4821 17.0269 11.4985C17.1098 11.5625 17.6252 11.9408 18.2084 11.7845C18.5761 11.6862 18.7991 11.4225 18.9288 11.2587C19.1699 10.9549 19.3025 10.6019 19.408 10.2355C19.4457 10.1074 19.4773 9.97789 19.515 9.83789C19.6325 10.0136 19.7034 10.1938 19.7426 10.3889C19.845 10.9042 19.9611 11.4196 19.9656 11.9453C19.9731 12.7481 19.7501 13.4525 19.4653 14.2032C19.3251 14.574 19.2965 14.6679 18.9092 15.2338"
      fill="#F06024" />
  </g>
  <defs>
    <clipPath id="clip0_2067_7553">
      <rect width="30" height="40" fill="white" />
    </clipPath>
  </defs>
</svg>