<svg width="32" height="40" viewBox="0 0 32 40" fill="none" xmlns="http://www.w3.org/2000/svg">
  <g clip-path="url(#clip0_2064_7539)">
    <path d="M13.8906 0.136408C19.4035 -0.505856 24.09 1.12374 27.8467 4.94403C30.7973 7.94481 32.1443 11.5548 31.9814 15.6315C31.8875 17.9646 31.13 20.1593 30.1474 22.2839C28.7171 25.3803 26.8319 28.2312 24.7324 30.9606C22.4782 33.891 20.0052 36.6552 17.3291 39.2546C17.0378 39.5375 16.6699 39.753 16.3379 39.9987H15.6709L15.6719 39.9997C15.1948 39.6131 14.6751 39.2634 14.2461 38.8347C10.7034 35.2924 7.45517 31.5307 4.73632 27.3884C3.05221 24.8213 1.57654 22.1564 0.6953 19.2399C-0.83953 14.1586 0.169492 9.52376 3.69432 5.4411C6.30559 2.41586 9.75189 0.619142 13.8906 0.136408ZM15.9785 3.99969C9.54053 4.01407 4.2872 8.93583 4.26561 14.9743C4.24265 21.0214 9.52498 25.9909 15.9844 25.9997C22.4362 26.0097 27.7296 21.0487 27.7266 14.9958H27.7285C27.7253 8.94153 22.4287 3.98534 15.9785 3.99969Z" fill="#F66E17"/>
    <path d="M15.9971 22.0527C19.8917 22.0527 23.0488 18.8956 23.0488 15.001C23.0488 11.1064 19.8917 7.94922 15.9971 7.94922C12.1025 7.94922 8.94531 11.1064 8.94531 15.001C8.94531 18.8956 12.1025 22.0527 15.9971 22.0527Z" fill="#FFA800"/>
  </g>
  <defs>
    <clipPath id="clip0_2064_7539">
      <rect width="32" height="40" fill="white"/>
    </clipPath>
  </defs>
</svg>